<?xml version="1.0" encoding="utf-8"?>
<!-- Generator: Adobe Illustrator 23.0.4, SVG Export Plug-In . SVG Version: 6.00 Build 0)  -->
<svg version="1.1" id="Layer_2" xmlns="http://www.w3.org/2000/svg" xmlns:xlink="http://www.w3.org/1999/xlink" x="0px" y="0px"
	 viewBox="0 0 612 676.1" style="enable-background:new 0 0 612 676.1;" xml:space="preserve">
<style type="text/css">
	.st0{fill:none;stroke:url(#SVGID_1_);stroke-miterlimit:10;}
	.st1{fill:none;stroke:url(#SVGID_2_);stroke-miterlimit:10;}
	.st2{fill:#231F20;enable-background:new    ;}
	.st3{fill:#FFFFFF;enable-background:new    ;}
	.st4{fill:#6CAA00;enable-background:new    ;}
</style>
<linearGradient id="SVGID_1_" gradientUnits="userSpaceOnUse" x1="306.4937" y1="525.2068" x2="306.4937" y2="525.2068" gradientTransform="matrix(1 0 0 1 0 -292)">
	<stop  offset="0" style="stop-color:#6666FF"/>
	<stop  offset="1" style="stop-color:#897DE4"/>
</linearGradient>
<path class="st0" d="M306.5,233.2"/>
<linearGradient id="SVGID_2_" gradientUnits="userSpaceOnUse" x1="525.7258" y1="577.6546" x2="525.7258" y2="577.6546" gradientTransform="matrix(-1 0 0 -1 1023.5644 954.8917)">
	<stop  offset="0" style="stop-color:#6666FF"/>
	<stop  offset="1" style="stop-color:#897DE4"/>
</linearGradient>
<path class="st1" d="M497.8,377.2"/>
<path class="st2" d="M67.8,291.1L67.8,291.1L67.8,291.1z"/>
<path class="st2" d="M182.9,313.1L182.9,313.1L182.9,313.1z"/>
<path class="st2" d="M269.1,324.8L269.1,324.8L269.1,324.8z"/>
<path class="st2" d="M156,283.9L156,283.9L156,283.9z"/>
<path class="st2" d="M239.9,292.9L239.9,292.9L239.9,292.9z"/>
<path class="st2" d="M105.2,73.4L105.2,73.4L105.2,73.4z"/>
<path class="st2" d="M346.7,213.4L346.7,213.4L346.7,213.4z"/>
<polygon class="st2" points="329,206 329,206 329,206 "/>
<path class="st3" d="M513,228.3c0,116.4-195.3,428.3-210.8,428.3c-15.5,0-210.8-311.9-210.8-428.3S185.9,17.6,302.3,17.6
	S513,111.9,513,228.3z M302.3,87.2c-74.9,0-135.7,60.8-135.7,135.7s60.8,135.7,135.7,135.7S438,297.9,438,222.9
	S377.2,87.2,302.3,87.2z"/>
<g>
	<path class="st4" d="M178.5,643.8c0.6,2.9-2.4,5.4-3.3,6.3c-4.8,3.7-9.9,7.4-14.7,11.1l-6.3,4.5l32.2-10.6l-0.3,3.4l19.7-7.3
		l-0.6,3.4l19.4-9.6l-0.6,4l12.6-8.8l4.1,2.6l-0.3,1.4l20.4-14.8l0.9,3.7c9.9-11.7,20.1-21.6,31.8-30.4l-7.7,0.8
		c-7.4,0.8-14.9,1.3-22.6,2.1c-2.1,0.3-4.5,0.3-6.6,0.5l-2.7,0.3l0,0c0,1.4-0.3,2.3-0.9,2.9c-1.2,1.4-3,1.7-4.2,1.7l-0.3,0
		c-3,0.3-6,0.5-8.9,0.8l3.8,2.6l-28,4.9l4.1,2.9l-24.2,8.4l3.3,2l-3.6,2.3c-0.6,0.3-0.9,0.6-1.2,0.9c-0.9,0.6-1.8,1.1-2.7,1.7
		c-1.8,1.1-3.9,2-6,3.1C182.7,641.6,180.6,642.4,178.5,643.8C178.5,643.5,178.5,643.8,178.5,643.8z"/>
	<path class="st4" d="M418.3,656.1l35,12l-0.6-0.3c-6.2-4.6-12.4-9.3-18.3-14.2c-0.3-0.3-0.6-0.6-0.9-0.6c-1.8-1.2-4.7-3.2-4.4-7.2
		c-0.3,0-0.3-0.3-0.6-0.3c-2.1-1.2-4.4-2.3-6.5-3.5c-1.5-0.9-3-1.5-4.7-2.3c-0.9-0.6-1.8-0.9-2.7-1.7l-5.3-3.5l3.6-2l-25.2-8.8
		l5.1-2.8l-26.7-5.4l3.6-2.8l-0.3,0c-2.7-0.3-5.7-0.3-8.3-0.6l-1.8,0c-3.3-0.3-5-1.5-5.3-4.1l-0.3,0c-5.4-0.6-11-1.2-16.6-1.9
		l-5.4-0.6c-4.5-0.6-9.2-0.9-14-1.8l0.6-5.7c17.9-0.1,36.6,1.2,59.8,4.5l-0.6-0.6l1.8-4.6l26.1,5.1l-2.9-5.5l28.2,3.4l-3.8-5.2
		l25.3,3.6l-5.3-5.8l30.4-1.5l-5.3-3.8l5.7-1.7c5.4-1.7,10.4-2.5,15.5-3c2.7-0.3,5.1-0.8,7.7-1.1l-3.6-2.3l0.3-4.9l21.4-3l-6.2-4.9
		l23.5-3.8l-5.6-3.5l20-4.7l-8.3-4.7l24.4-3.8l-3.3-2.9l7.2-2c1.5-0.6,3-0.8,4.5-1.1c4.5-0.8,8.9-1.9,13.4-2.8
		c1.5-0.3,2.7-0.6,4.2-0.8l-22-3l1.5-3.7l-24.1,2.4l2.7-5.4l-18.8,1.9c-1.2,0-3.6,0.3-5.3-1.2c-0.9-0.6-1.2-1.7-1.5-2.9l-28.3,5.5
		l1.5-6l-25.7,9.3l1.8-6.3l-23.3,11.3l0-6l-19.4,11l-1.2-4l-20.4,15.9l0.9-7.2l-19.5,14.2l-1.1-6.3l-22.2,17.9l0.4-6.6L311.9,599
		l-1.8-2.6l-1.5,2.3l-1.4-6.3c-0.6-2.3,0-3.7,0.3-4.9l4-11.2c3.7-10,7.3-19.7,10.7-29.7c0-0.3,0.3-0.6,0.3-1.1
		c0.3-0.6,0.9-2,0.6-2.6c-1.2-4.3,0.4-7.7,1.6-10.6c0.3-0.6,0.6-1.1,0.9-2c1.2-3.4,2.4-6.6,3.9-9.7l0.9-2.3
		c-1.8-1.7-2.1-3.5-1.1-6.6c0.9-2.6,1.8-5.4,2.7-8c0.6-2,1.5-4,2.1-6c-0.6-0.6-0.9-1.2-1.2-1.7c-0.9-2,0-3.7,0.6-4.6
		c0-0.3,0.3-0.3,0.3-0.6c0.9-2.6,1.8-5.1,3-7.4c0.6-1.4,1.2-2.9,1.8-4.3c0.6-1.4,0.9-2.6,1.5-4l-2.7-0.3l7.6-24.6
		c-0.6-0.3-0.9-0.6-1.2-0.9c-1.5-1.7-1.2-4-0.9-5.2c0.3-1.7,0.6-3.7,0.9-5.4c0.3-1.7,0.6-3.4,0.9-5.2c0.6-3.4,1.2-7.2,1.9-10.9
		l0-0.3l-5.1,1.4l6.5-28.6l-3.9-0.3l4.1-26.1c-1.2,0-2.1-0.3-3-1.2c-1.5-1.4-1.5-3.2-1.1-5.7c0-0.9,0.3-1.7,0.3-2.6l1.3-9.7
		l-4.2,1.4l0.3-5.4c0-0.6,0-1.1,0-1.7l0.6-6.3c0.3-3.4,0.9-6.9,1.3-10.6l0-0.3l0,0l-4.5,1.4l2.9-25.2l-7.2,2l2.9-25.8
		c-0.3-0.3-0.9-0.3-1.2-0.6c-1.8-1.4-1.8-3.7-2-4.9c0-4.9-0.2-10-0.2-14.9c-2.4-0.3-4.1-2-4.7-5.5l0-0.6c-0.3-2.3-0.9-4.3-1.1-6.6
		c-0.3-1.7-0.6-3.4-0.9-5.2c0-0.3-0.3-0.6-0.3-0.9c-4.5-1.5-4.4-5.5-4.4-7.5c0-0.6,0-0.9,0-1.4c-0.3-1.7-0.3-3.4-0.6-5.2
		c-0.3-2-0.3-3.7-0.6-5.5c-0.6,0-1.2-0.3-1.8-0.6c-1.8-0.9-2.1-2.9-2.1-3.7l0-0.3c-0.6-2.6-1.1-5.5-1.7-8c-0.6-2.3-1.2-4.9-1.4-7.2
		c0-0.3-0.3-0.6-0.3-1.1c-3.3-1.5-3.8-4.6-4.4-6.6c0-0.3,0-0.6-0.3-0.9c-0.6-2.6-1.1-5.5-1.4-8l-0.3-2c-0.3-2.3-0.9-4.6-1.1-6.9
		c-1.2,6-2.5,11.7-3.7,17.8c-0.6,3.4-2.1,5.1-3.9,5.7c-0.3,0-0.3,0-0.3,0c0,0.3-0.3,0.9-0.3,1.1l0,0.6c-0.3,2-0.9,4.3-1.2,6.3
		c-0.3,2.6-0.9,4.9-1.5,7.4c0,0.6-1.2,5.2-4.5,5.1l0,0l0,0c0,0.3,0,0.6,0,0.9c0,0.3,0,0.6,0,0.9c-0.3,2-0.3,3.7-0.6,5.7
		c-0.3,2.6-0.6,5.2-1,7.4c0,0-0.9,5.7-4.5,5.7l0,0c0,0.3,0,0.3,0,0.6s0,0.6,0,0.9c-0.3,2.3-0.6,4.3-0.9,6.6
		c-0.3,1.7-0.6,3.2-0.6,4.9c-0.3,1.4-0.6,3.7-2.7,4.9c-0.3,0.3-0.9,0.3-1.2,0.6l0,0.3c0,1.7-0.3,3.4-0.3,5.2c0,2.9-0.3,5.4-0.4,8.3
		c0,1.7-0.3,4.3-2.4,5.7c-0.3,0.3-0.9,0.6-1.5,0.8l2.2,26.1l-6.8-2.1l2.8,26.4l-4.4-2l2.2,24.1l-3.9-1.8l1.9,20.1l-4.8-0.9l4.2,29.9
		l-4.1-2l5.4,27.6l-5-1.8l1.1,6.3c0.9,5.2,1.7,10.1,2.6,15.2c0.3,1.7,0.3,4.6-1.8,5.7l0,0c0,0.3,0.3,0.6,0.3,0.9
		c0,0.3,0.3,0.9,0.3,1.1c1.2,4.3,2.3,8.3,3.8,12.4l2,6.6c0.3,0.6,0.3,1.1,0,1.4l0,2.6l-1.5,0.3l8.2,22.4l-3,0.5
		c0,0.3,0.3,0.6,0.3,0.9c0.9,3.2,1.7,6,2.6,9.2l1.2,4c0.3,1.4,0.9,3.4-0.3,5.2c-0.3,0.3-0.6,0.6-0.9,0.9c0.3,0.6,0.6,1.2,0.9,1.7
		c1.2,2.9,2.6,5.8,3.8,8.6c2.3,4.6,3.2,9.5,4.1,14.1c0.3,1.4,0.6,2.6,0.9,4c2,8.3,4.6,16.7,7.5,24.7c1.2,3.5,2.3,6.9,3.5,10.4
		c0.6,2,1.2,4,1.7,6l3.2,10.4l3,1.7c16,9.3,28.1,22.3,38.7,35.6l1.5-3.4l18.9,13.6l0,0l-1.7-7.5l18.6,12.8l-0.3-4l18.4,9.6l-0.6-2.3
		l5,1.2c4.8,1.2,9.2,3.2,13.6,5c0.3,0,0.3,0,0.6,0.3L418.3,656.1z"/>
	<path class="st4" d="M285.1,596.8c2.7,0,5.4,0,8.3,0.4l0.3,5.5c1.8-1.4,3.6-2.6,5.4-4l3.6-2.6l-3.8-2.3c-0.6-0.3-1.2-0.6-1.5-1.2
		l-2.1,3.4c-11.6-5.8-22.8-12.2-33.8-18.3c-6.5-3.8-13.3-7.6-20.1-11.3l-3.6,3.1L220,554.7l-0.9,6l-20.7-14.8l0,6l-18-14.5l0,4.3
		l-20.7-11.9l-1.8,5.1l-21.9-11.4l0.5,6.3l-23.7-9.1l1.5,4.6l-4.5-0.3c-0.6,0-0.9,0-1.5,0c-1.2,0-2.1,0-3-0.3
		c-2.4-0.6-4.8-0.9-7.1-1.5c-3.9-0.9-8-1.8-11.9-2.4c-0.3,1.1-0.9,2-1.5,2.6c-1.8,1.4-4.2,1.4-5.7,1.1c-2.7-0.3-5.1-0.6-7.7-0.9
		c-3.3-0.3-6.5-0.6-10.1-0.9c-0.3,0-0.6,0-0.6,0l2.3,4.9l-5.4-0.3L39,525.4l1.5,3.7L19,531.6c3,0.6,5.6,1.5,8.6,2.1
		c3.6,0.9,6.8,1.5,10.4,2.4l12.5,3l-5.4,3.1c2.1,0.3,4.2,0.6,6.5,0.9c3,0.3,6.2,0.9,9.2,1.5l7.7,1.8l-7.8,4l20.2,5.3l-6,3.4l17.8,3
		l1.5,4.6l-2.1,1.1l20.5,3l1.2,4.6l-3.9,2.8l23.8,4.5l1.5,4.6l-1.8,1.1l30.6,2l-5.4,5.4l25.9-3.5l-4.8,5.7l29.5-3.8l-4.2,6l33.4-5.8
		l-6,6c4.8-0.2,9.5-0.8,14-1.3C259.5,598,272.3,596.7,285.1,596.8z"/>
	<path class="st4" d="M342.1,539.3c-0.9,2.6-2.1,5.1-3,7.4c-1.8,4.3-3.6,8.3-5.8,12.3c-2.1,4.3-4.2,8.3-6.3,12
		c-2.7,4.9-4.8,8.3-6.9,11.7c-1.5,2-3,4.3-4.2,6.3l43.1-28.3l-3-2.9l17-8.8l-1.2-0.6l1.8-4.6l20.3-8.7l-2.4-3.2l5.1-1.7
		c0.6-0.3,1.2-0.3,1.5-0.6l2.4-0.8c4.5-1.7,9-3.4,13.1-5.1c-0.6-1.2-0.9-2.3-0.6-3.2c0.6-2.3,2.7-3.1,4.2-4c2.4-1.1,5.1-2.3,7.5-3.4
		c2.1-0.8,4.2-2,6.3-2.8l-4.7-2.3l7.2-3.7c1.5-0.8,3-1.4,4.5-2.3c0.6-0.3,1.5-0.8,2.4-1.1c1.2-0.6,2.7-1.1,3-2
		c2.1-3.4,5.1-5.1,7.8-6.5c0.6-0.3,1.2-0.6,1.8-0.8c2.1-1.1,4.2-2.3,6.3-3.4c0.3-0.3,0.6-0.3,0.9-0.6l-1.5-4.3l21.5-12.2l-3.6-1.7
		l13.5-9.9l-6.2-1.5l19.5-15.6l-3.9-1.2l17.4-17.6l-4.4-2.6l14.7-14.8l-8-0.9l14.1-16.2l-6.5-1.2l15-19.1l-7.1-0.6l13.8-19.4
		l-3.9-1.5l2.1-3.1c0.3-0.6,0.6-0.9,0.9-1.4c0.6-1.1,1.5-2.3,2.1-3.1c1.5-1.7,3.3-3.7,5.1-5.4c1.2-1.1,2.4-2.6,3.3-3.7
		c0.3-0.3,0.6-0.6,0.9-0.9c-0.3-0.3-0.6-0.3-0.9-0.6c-0.9-0.6-1.2-1.4-1.2-1.7l-0.6-1.7l13.6-21.4l-26.9,19.6l-1.2-3.5l-18.9,18.2
		l-1.5-4.6l-18,16.2l-2.1-3.5c-0.3,0.3-0.6,0.6-0.9,1.1c-1.5,1.7-3,3.4-4.8,5.4c-2.1,2.3-3.9,4.6-6,6.5c-1.5,1.7-3.9,3.7-6.3,2.5
		l0,0c0,0.3-0.3,0.3-0.3,0.6c-0.3,0.3-0.6,0.9-0.9,1.1c-1.8,2-3.6,4.3-5.4,6.3c-0.9,1.1-2.1,2.6-3,3.7c-0.9,0.9-1.5,1.7-2.7,2.8
		l-6.9,7.4l0-3.2L454,395.9l-2.4-2.9L438,415.3l-2-6.9c-1.2,2-2.1,4-3.3,5.7c-1.5,2.6-2.7,5.1-4.2,8l-5.1,10.6l-2.6-7.8L408,449.2
		l-3.2-4.3l-16.6,30l-2.1-3.5l-4.8,8.6c-2.1,3.7-4.2,7.4-6.3,11.4c-0.6,0.9-1.5,2.9-3.9,2.8l-0.3,0l-11.2,25.2l-4.8-1.2l-10,26.3
		L342.1,539.3z"/>
	<path class="st4" d="M251.5,559.8l41.7,28.4c-9.4-13.6-17.3-29.1-24-47.2c-0.3-0.6-0.6-1.4-0.9-2l-2.4,5.1l-9.9-27.6l-2.7,4.6
		l-3.5-7.5c-0.6-1.4-1.2-2.6-1.8-3.7l-2.9-6.6c-1.8-3.7-3.2-7.8-5-11.5c0,0,0-0.3-0.3-0.3c-0.6,0-1.2,0-1.8-0.3
		c-1.8-0.6-2.4-2.3-2.7-3.2l0-0.3c-2.1-3.7-4.1-7.5-6.2-11.2c-1.2-2.3-2.3-4.6-3.5-6.9l-2.1,3.4l-15.8-30.5l-3,4.6l-12.6-24.8
		l-2.4,6.9l-3.2-5.8c-1.8-3.2-3.2-6.3-4.7-9.2c-1.5-2.9-2.6-6-4.4-8.6l-1.5,5.7l-3.5-4.6c-2.4-3.2-4.1-6.3-5.9-9.5
		c-1.2-2-2.3-4-3.5-6.1l-1.5,4.3l-13.5-20.2l-2.1,2.3l-14.7-17.9l-2.1,2.3l-15.6-18.2l-1.8,4l-18.3-17.1l-2.1,4.3l-4.4-4.1
		c-0.9-0.9-2.1-1.7-3-2.6c-1.5-1.4-3-2.9-4.4-4.6c-2.1-2.3-4.1-4.3-6.2-6.6l-0.3-0.3c-4.2,2-7.1-0.6-8.6-2.1
		c-0.3-0.3-0.6-0.6-0.9-0.6c-5.6-4.1-10.9-8.4-16.6-12.8l-1.2-0.9l15,23.9l-3.9,1.7c-0.3,0-0.6,0.3-0.9,0.3c0.6,0.9,1.5,1.7,2.1,2.6
		c0.6,0.6,1.2,1.4,1.8,2c2.1,2.3,4.1,4.6,6.2,6.9l5,5.8l-4.8,2l11.8,17.6l-5.7,2.2c1.5,2,2.9,4,4.4,6.1c2.7,3.2,5.3,6.6,7.4,10.7
		l1.5,3.2l-4.5,1.1L94.7,404l-8.3-0.1l14.8,15l-5.1,2.5c0,0.3,0.3,0.3,0.3,0.6c1.2,1.2,2.4,2.3,3.5,3.8c2.4,2.3,4.4,4.6,6.8,6.9
		c0.6,0.6,3.2,4.6,1.1,6.9c0,0,0,0,0.3,0.3l0.6,0.6c1.8,1.4,3.8,3.2,5.9,4.6c2.1,1.5,3.8,3.2,5.9,4.6c0.9,0.9,1.5,1.4,2.4,2.6
		c0.3,0.3,0.6,0.9,0.9,1.2l3.2,3.8l-4.8,0.8l13,10.1l-3,1.7l25.2,15.4l-6,1.7c1.8,0.9,3.3,2,5,2.9c2.4,1.5,4.7,2.6,7.1,4.1l0.3,0.3
		c1.2,0.6,3,1.7,3.2,3.5c0.3,0.9,0.9,1.4,2.7,2.3c0.6,0.3,0.9,0.6,1.5,0.9c1.2,0.6,2.4,1.2,3.3,1.7c1.2,0.6,2.4,1.2,3.6,2
		c0.9,0.6,1.5,1.2,2.1,1.7c0.3,0.3,0.6,0.6,0.9,0.9l4.4,3.8l-3.9,0.8c1.5,0.6,3,1.5,4.4,2c2.7,1.2,5.3,2.6,8,3.8
		c1.8,0.9,3,3.2,2.9,4.3c0.3,1.1,0,2-0.6,2.6l0.3,0c3.9,1.8,7.7,3.2,11.6,4.7l5.9,2.3c1.2,0.6,1.8,1.4,1.8,1.7l0.9,1.7l-0.9,1.1
		l23.7,10.5l-3.6,3.1l17.8,9.6L251.5,559.8z"/>
</g>
</svg>
